<svg xmlns="http://www.w3.org/2000/svg" width="220" height="220" viewBox="0 0 220 220">
    <g fill="none" fill-rule="evenodd" stroke-linecap="round" stroke-linejoin="round">
        <g stroke="#22261D" stroke-width="2">
            <g>
                <g>
                    <g>
                        <path d="M25.125 47.485V13.397c0-1.056-.895-1.912-2-1.912h-10c-1.104 0-2 .856-2 1.912v31.088" transform="translate(-569 -645) translate(429 580) translate(140 65) translate(33 22)"/>
                        <path d="M5.005 91.032L2.797 75.027c-.759-5.5-.054-11.17 2-16.082l13.329-31.877 9.76 28.723c1.308 3.845 1.835 8.06 1.53 12.243L23.64 147.66m-.79 10.88l-1.072 14.769c-.296 4.08-4.822 4.325-5.38.29l-9.93-71.97M19.675 176.414L18.52 65.185m-.117-11.339l-.278-26.779" transform="translate(-569 -645) translate(429 580) translate(140 65) translate(33 22)"/>
                        <path d="M24.9 59.493h30.774c3.315 0 6.363-1.823 7.93-4.745L86.82 11.484" opacity=".5" transform="translate(-569 -645) translate(429 580) translate(140 65) translate(33 22)"/>
                        <path d="M11.5 96.493h43.444c3.691 0 7.008-2.254 8.367-5.685L86.82 31.484M30.459 153.016h23.598c4.118 0 7.711-2.795 8.724-6.787L86.82 51.485" opacity=".5" transform="translate(-569 -645) translate(429 580) translate(140 65) translate(33 22)"/>
                        <path d="M24.4 59.493c0 3.037-2.462 5.5-5.5 5.5s-5.5-2.463-5.5-5.5c0-3.038 2.462-5.5 5.5-5.5s5.5 2.462 5.5 5.5zM11 96.493c0 3.037-2.462 5.5-5.5 5.5S0 99.53 0 96.493c0-3.038 2.462-5.5 5.5-5.5s5.5 2.462 5.5 5.5zM29.959 153.016c0 3.037-2.462 5.5-5.5 5.5s-5.5-2.463-5.5-5.5c0-3.038 2.462-5.5 5.5-5.5s5.5 2.462 5.5 5.5z" transform="translate(-569 -645) translate(429 580) translate(140 65) translate(33 22)"/>
                        <g>
                            <path d="M45.421.598V13.63c.019 3.335-2.16 6.67-6.54 9.215-8.76 5.09-23 5.09-31.816 0C2.655 20.3.44 16.965.42 13.63V.598" transform="translate(-569 -645) translate(429 580) translate(140 65) translate(33 22) translate(102 39.501)"/>
                        </g>
                        <g>
                            <path d="M45.421.904v13.032c.019 3.335-2.16 6.67-6.54 9.215-8.76 5.091-23 5.091-31.816 0C2.655 20.606.44 17.271.42 13.936V.904" transform="translate(-569 -645) translate(429 580) translate(140 65) translate(33 22) translate(102 26.501)"/>
                        </g>
                        <g>
                            <path d="M45.421.532v13.032c.019 3.335-2.16 6.67-6.54 9.215-8.76 5.091-23 5.091-31.816 0C2.655 20.234.44 16.9.42 13.564V.531" transform="translate(-569 -645) translate(429 580) translate(140 65) translate(33 22) translate(102 13.501)"/>
                        </g>
                        <g>
                            <path d="M38.777 4.317c-8.817-5.09-23.057-5.09-31.817 0-8.76 5.091-8.713 13.34.104 18.43 8.817 5.09 23.057 5.09 31.817 0m0 0c8.76-5.091 8.713-13.34-.104-18.43" transform="translate(-569 -645) translate(429 580) translate(140 65) translate(33 22) translate(102 .501)"/>
                        </g>
                        <path d="M152.92 162.842h-56c-1.103 0-2-.896-2-2v-76c0-1.104.897-2 2-2h56c1.105 0 2 .896 2 2v76c0 1.104-.895 2-2 2zM105.743 96.493L144.099 96.493M105.743 104.2L144.099 104.2M105.743 111.907L144.099 111.907M105.743 119.614L124.921 119.614" transform="translate(-569 -645) translate(429 580) translate(140 65) translate(33 22)"/>
                        <path d="M105.743 137.613c1.916 0 1.916 4 3.832 4 1.917 0 1.917-4 3.833-4 1.917 0 1.917 4 3.834 4 1.919 0 1.919-4 3.839-4s1.92 4 3.84 4M146.424 139.613c0 .827-2.088 1.23-2.386 1.95-.308.744.87 2.504.31 3.066-.562.56-2.322-.62-3.066-.31-.718.298-1.123 2.386-1.948 2.386-.827 0-1.23-2.089-1.949-2.387-.744-.309-2.504.87-3.065.31-.562-.561.617-2.321.31-3.065-.299-.72-2.387-1.123-2.387-1.95 0-.825 2.088-1.228 2.386-1.947.308-.744-.87-2.505-.309-3.066.561-.56 2.321.618 3.065.31.718-.298 1.122-2.386 1.95-2.386.824 0 1.23 2.088 1.947 2.386.745.308 2.504-.87 3.065-.31.561.561-.617 2.322-.309 3.066.298.719 2.386 1.123 2.386 1.947z" transform="translate(-569 -645) translate(429 580) translate(140 65) translate(33 22)"/>
                    </g>
                </g>
            </g>
        </g>
    </g>
</svg>
