<?xml version="1.0" encoding="utf-8"?>
<svg xmlns="http://www.w3.org/2000/svg" width="220" height="220" viewBox="-543 217 256 256">
  <g fill="none" stroke="#22261D" stroke-width="2">
    <path d="M-455.7,342.5c21.1,0,38.2-17.1,38.2-38.2h-38.2v-38.2c-21.1,0-38.2,17.1-38.2,38.2C-494,325.4-476.9,342.5-455.7,342.5z"/>
    <path d="M-448.1,258.7v38.2h38.2C-410.1,275.8-427,258.7-448.1,258.7z"/>
    <polyline points="-394.8,289.1 -394.8,278.9 -333.8,278.9 -333.8,289.1"/>
    <polyline points="-394.8,309.5 -394.8,299.2 -333.8,299.2 -333.8,309.5"/>
    <polyline points="-394.8,329.8 -394.8,319.5 -333.8,319.5 -333.8,329.8"/>
    <path d="M-293,243.4v-20.3h-244v20.3h10.3v122.1H-537v20.3h116.9V437l0,0l-31.4,32h13.7l17.7-17.7v17.7h10.3v-17.1l17.1,17.1h14.7
      l-31.8-31.6V386H-293v-20.3h-10.3V243.6h10.3V243.4z M-313.3,365.5h-203.4V243.4h203.4V365.5z"/>
  </g>
</svg>
